<svg width="50" height="40" viewBox="0 0 50 40" fill="none" xmlns="http://www.w3.org/2000/svg">
<path d="M29.8889 15.7488L28.0902 22.3872H20.6671L22.433 15.7488H29.8889ZM50 0.67363L41.8901 30.9549H6.44209L0.719434 39.3264L0 39.2609L10.3662 0.67363H50ZM22.5638 6.82148H42.7076L43.4925 3.71484H23.3813L22.5638 6.82148ZM16.8411 6.78877C17.6586 6.78877 18.5089 6.10205 18.7378 5.28447C18.9666 4.43427 18.4761 3.78027 17.6259 3.78027C15.6972 3.88847 14.7548 6.63447 16.8411 6.78877ZM12.8188 6.78877C14.966 6.66699 15.4697 3.79092 13.6037 3.78027C12.7861 3.78027 11.9359 4.46699 11.707 5.28447C11.5107 6.10205 12.0013 6.78877 12.8188 6.78877ZM43.6232 15.7488L45.1603 9.96074H38.8816L37.312 15.7488H29.8889L31.4258 9.96074H24.0026L22.433 15.7488H14.9771L16.5141 9.96074H10.2354L8.69853 15.7488H14.9771L13.2112 22.3872H6.93262L5.23213 28.6658H11.5108L13.2112 22.3872H20.6671L18.9666 28.6658H26.4225L28.0902 22.3872H35.5461L33.8456 28.6658H40.1569L41.8574 22.3872H35.5461L37.312 15.7488H43.6232Z" fill="white"/>
</svg>
