<svg width="45" height="45" viewBox="0 0 45 45" fill="none" xmlns="http://www.w3.org/2000/svg">
<path d="M22.5 19.6875V41.25C19.4147 37.5 9.96469 37.5 5.625 37.5V16.875C14.8819 16.875 20.7319 18.75 22.5 19.6875ZM22.5 19.6875V41.25C25.5853 37.5 35.0353 37.5 39.375 37.5V16.875C30.1181 16.875 24.2681 18.75 22.5 19.6875Z" stroke="white" stroke-width="4" stroke-linecap="round" stroke-linejoin="round"/>
<path d="M22.5 18.75C26.6421 18.75 30 15.3921 30 11.25C30 7.10786 26.6421 3.75 22.5 3.75C18.3579 3.75 15 7.10786 15 11.25C15 15.3921 18.3579 18.75 22.5 18.75Z" stroke="white" stroke-width="4"/>
</svg>
