<svg width="50" height="50" viewBox="0 0 50 50" fill="none" xmlns="http://www.w3.org/2000/svg">
<path d="M25 5C22.595 5 20.7 5.605 19.2375 6.605C17.916 7.52394 16.8701 8.78589 16.2125 10.255C15.3875 12.02 15.1225 13.8475 15.0375 15.0425C13.4225 15.1625 11.7625 15.55 10.4 16.46C8.605 17.6575 7.5 19.635 7.5 22.5C7.5 25.365 8.605 27.3425 10.4 28.54C12.1075 29.6775 14.275 30 16.25 30H33.75C35.7025 30 37.875 29.72 39.59 28.6C41.405 27.415 42.5 25.425 42.5 22.5C42.5 19.635 41.395 17.6575 39.6 16.46C38.235 15.55 36.58 15.1625 34.96 15.0425C34.8775 13.8475 34.6125 12.02 33.79 10.2525C33.1307 8.78439 32.0852 7.52284 30.765 6.6025C29.3 5.6075 27.4025 5 25 5ZM17.5 16.25C17.5 15.6425 17.5075 13.385 18.475 11.31C18.95 10.2925 19.6425 9.355 20.645 8.67C21.645 7.9875 23.03 7.5 25 7.5C26.97 7.5 28.3575 7.9875 29.355 8.67C30.3575 9.355 31.0475 10.2925 31.5225 11.31C32.4925 13.385 32.5 15.6425 32.5 16.25C32.5 16.5815 32.6317 16.8995 32.8661 17.1339C33.1005 17.3683 33.4185 17.5 33.75 17.5C35.525 17.5 37.1075 17.8025 38.2125 18.54C39.2275 19.2175 40 20.365 40 22.5C40 24.72 39.22 25.855 38.2225 26.5075C37.1225 27.2275 35.5475 27.5 33.75 27.5H16.25C14.475 27.5 12.8925 27.1975 11.7875 26.46C10.77 25.7825 10 24.635 10 22.5C10 20.365 10.77 19.2175 11.7875 18.54C12.8925 17.8025 14.475 17.5 16.25 17.5C16.5815 17.5 16.8995 17.3683 17.1339 17.1339C17.3683 16.8995 17.5 16.5815 17.5 16.25ZM20 42.5C21.3261 42.5 22.5979 41.9732 23.5355 41.0355C24.4732 40.0979 25 38.8261 25 37.5C25 36.1739 24.4732 34.9021 23.5355 33.9645C22.5979 33.0268 21.3261 32.5 20 32.5C18.6739 32.5 17.4021 33.0268 16.4645 33.9645C15.5268 34.9021 15 36.1739 15 37.5C15 38.8261 15.5268 40.0979 16.4645 41.0355C17.4021 41.9732 18.6739 42.5 20 42.5V42.5ZM20 40C19.337 40 18.7011 39.7366 18.2322 39.2678C17.7634 38.7989 17.5 38.163 17.5 37.5C17.5 36.837 17.7634 36.2011 18.2322 35.7322C18.7011 35.2634 19.337 35 20 35C20.663 35 21.2989 35.2634 21.7678 35.7322C22.2366 36.2011 22.5 36.837 22.5 37.5C22.5 38.163 22.2366 38.7989 21.7678 39.2678C21.2989 39.7366 20.663 40 20 40V40ZM8.75 45C9.74456 45 10.6984 44.6049 11.4017 43.9016C12.1049 43.1984 12.5 42.2446 12.5 41.25C12.5 40.2554 12.1049 39.3016 11.4017 38.5983C10.6984 37.8951 9.74456 37.5 8.75 37.5C7.75544 37.5 6.80161 37.8951 6.09835 38.5983C5.39509 39.3016 5 40.2554 5 41.25C5 42.2446 5.39509 43.1984 6.09835 43.9016C6.80161 44.6049 7.75544 45 8.75 45V45ZM8.75 42.5C8.41848 42.5 8.10054 42.3683 7.86612 42.1339C7.6317 41.8995 7.5 41.5815 7.5 41.25C7.5 40.9185 7.6317 40.6005 7.86612 40.3661C8.10054 40.1317 8.41848 40 8.75 40C9.08152 40 9.39946 40.1317 9.63388 40.3661C9.8683 40.6005 10 40.9185 10 41.25C10 41.5815 9.8683 41.8995 9.63388 42.1339C9.39946 42.3683 9.08152 42.5 8.75 42.5Z" fill="white"/>
</svg>
